<svg width="14" height="14" viewBox="0 0 14 14" fill="none" xmlns="http://www.w3.org/2000/svg">
<path d="M9.33594 4.66602C10.2642 4.66602 11.1544 5.03476 11.8108 5.69114C12.4672 6.34752 12.8359 7.23776 12.8359 8.16602V12.2493H10.5026V8.16602C10.5026 7.8566 10.3797 7.55985 10.1609 7.34106C9.9421 7.12227 9.64536 6.99935 9.33594 6.99935C9.02652 6.99935 8.72977 7.12227 8.51098 7.34106C8.29219 7.55985 8.16927 7.8566 8.16927 8.16602V12.2493H5.83594V8.16602C5.83594 7.23776 6.20469 6.34752 6.86106 5.69114C7.51744 5.03476 8.40768 4.66602 9.33594 4.66602Z" fill="#101010"/>
<path d="M1.16797 5.25H3.5013V12.25H1.16797V5.25Z" fill="#101010"/>
<path d="M2.33464 3.49935C2.97897 3.49935 3.5013 2.97701 3.5013 2.33268C3.5013 1.68835 2.97897 1.16602 2.33464 1.16602C1.6903 1.16602 1.16797 1.68835 1.16797 2.33268C1.16797 2.97701 1.6903 3.49935 2.33464 3.49935Z" fill="#101010"/>
</svg>
