<svg width="14" height="14" viewBox="0 0 14 14" fill="none" xmlns="http://www.w3.org/2000/svg">
<path d="M13.4154 1.75001C12.8568 2.14403 12.2383 2.4454 11.5837 2.64251C11.2324 2.23855 10.7655 1.95224 10.2461 1.8223C9.72679 1.69235 9.18007 1.72504 8.67991 1.91594C8.17975 2.10684 7.75029 2.44674 7.4496 2.88967C7.14892 3.33261 6.99152 3.8572 6.9987 4.39251V4.97584C5.97357 5.00242 4.95777 4.77506 4.04179 4.31402C3.1258 3.85297 2.33805 3.17254 1.7487 2.33334C1.7487 2.33334 -0.584635 7.58334 4.66536 9.91667C3.46401 10.7322 2.03287 11.141 0.582031 11.0833C5.83203 14 12.2487 11.0833 12.2487 4.37501C12.2482 4.21252 12.2325 4.05044 12.202 3.89084C12.7974 3.30371 13.2175 2.56242 13.4154 1.75001Z" fill="#101010"/>
</svg>
