<svg width="32" height="32" viewBox="0 0 32 32" fill="none" xmlns="http://www.w3.org/2000/svg">
<path d="M24 3.3C21.65 1.85 18.95 1 16 1V3.3H24Z" fill="#ED4C5C"/>
<path d="M16 5.60078H26.8C25.95 4.75078 25 3.95078 24 3.30078H16V5.60078Z" fill="white"/>
<path d="M16 7.89961H28.65C28.1 7.04961 27.5 6.29961 26.85 5.59961H16V7.89961Z" fill="#ED4C5C"/>
<path d="M16 10.2004H29.85C29.5 9.40039 29.1 8.60039 28.65 7.90039H16V10.2004Z" fill="white"/>
<path d="M16 12.4992H30.6C30.4 11.6992 30.15 10.9492 29.85 10.1992H16V12.4992Z" fill="#ED4C5C"/>
<path d="M16 14.8508H30.95C30.9 14.0508 30.75 13.3008 30.6 12.5508H16V14.8508Z" fill="white"/>
<path d="M30.95 14.8496H16V15.9996H1C1 16.3996 1 16.7496 1.05 17.1496H30.95C31 16.7496 31 16.3996 31 15.9996C31 15.5996 31 15.1996 30.95 14.8496Z" fill="#ED4C5C"/>
<path d="M1.40078 19.4504H30.6008C30.8008 18.7004 30.9008 17.9504 30.9508 17.1504H1.05078C1.10078 17.9004 1.20078 18.7004 1.40078 19.4504Z" fill="white"/>
<path d="M2.14844 21.7492H29.8484C30.1484 20.9992 30.3984 20.2492 30.5984 19.4492H1.39844C1.59844 20.2492 1.84844 20.9992 2.14844 21.7492Z" fill="#ED4C5C"/>
<path d="M3.34844 24.05H28.6484C29.0984 23.3 29.4984 22.55 29.8484 21.75H2.14844C2.49844 22.55 2.89844 23.3 3.34844 24.05Z" fill="white"/>
<path d="M5.15156 26.3508H26.8516C27.5016 25.6508 28.1516 24.8508 28.6516 24.0508H3.35156C3.85156 24.9008 4.50156 25.6508 5.15156 26.3508Z" fill="#ED4C5C"/>
<path d="M7.94844 28.6496H24.0484C25.0984 27.9996 25.9984 27.1996 26.8484 26.3496H5.14844C5.99844 27.2496 6.94844 27.9996 7.94844 28.6496Z" fill="white"/>
<path d="M15.9992 31.0004C18.9492 31.0004 21.6992 30.1504 24.0492 28.6504H7.94922C10.2992 30.1504 13.0492 31.0004 15.9992 31.0004Z" fill="#ED4C5C"/>
<path d="M8 3.3C6.95 3.95 6 4.75 5.15 5.6C4.45 6.3 3.85 7.1 3.35 7.9C2.9 8.65 2.45 9.4 2.15 10.2C1.85 10.95 1.6 11.7 1.4 12.5C1.2 13.25 1.1 14 1.05 14.8C1 15.2 1 15.6 1 16H16V1C13.05 1 10.35 1.85 8 3.3Z" fill="#428BC1"/>
<path d="M12.5 1.5L12.75 2.25H13.5L12.9 2.75L13.1 3.5L12.5 3.05L11.9 3.5L12.1 2.75L11.5 2.25H12.25L12.5 1.5Z" fill="white"/>
<path d="M14.5 4.5L14.75 5.25H15.5L14.9 5.75L15.1 6.5L14.5 6.05L13.9 6.5L14.1 5.75L13.5 5.25H14.25L14.5 4.5Z" fill="white"/>
<path d="M10.5 4.5L10.75 5.25H11.5L10.9 5.75L11.1 6.5L10.5 6.05L9.9 6.5L10.1 5.75L9.5 5.25H10.25L10.5 4.5Z" fill="white"/>
<path d="M12.5 7.5L12.75 8.25H13.5L12.9 8.75L13.1 9.5L12.5 9.05L11.9 9.5L12.1 8.75L11.5 8.25H12.25L12.5 7.5Z" fill="white"/>
<path d="M8.5 7.5L8.75 8.25H9.5L8.9 8.75L9.1 9.5L8.5 9.05L7.9 9.5L8.1 8.75L7.5 8.25H8.25L8.5 7.5Z" fill="white"/>
<path d="M4.5 7.5L4.75 8.25H5.5L4.9 8.75L5.1 9.5L4.5 9.05L3.9 9.5L4.1 8.75L3.5 8.25H4.25L4.5 7.5Z" fill="white"/>
<path d="M14.5 10.5L14.75 11.25H15.5L14.9 11.75L15.1 12.5L14.5 12.05L13.9 12.5L14.1 11.75L13.5 11.25H14.25L14.5 10.5Z" fill="white"/>
<path d="M10.5 10.5L10.75 11.25H11.5L10.9 11.75L11.1 12.5L10.5 12.05L9.9 12.5L10.1 11.75L9.5 11.25H10.25L10.5 10.5Z" fill="white"/>
<path d="M6.5 10.5L6.75 11.25H7.5L6.9 11.75L7.1 12.5L6.5 12.05L5.9 12.5L6.1 11.75L5.5 11.25H6.25L6.5 10.5Z" fill="white"/>
<path d="M12.5 13.5L12.75 14.25H13.5L12.9 14.75L13.1 15.5L12.5 15.05L11.9 15.5L12.1 14.75L11.5 14.25H12.25L12.5 13.5Z" fill="white"/>
<path d="M8.5 13.5L8.75 14.25H9.5L8.9 14.75L9.1 15.5L8.5 15.05L7.9 15.5L8.1 14.75L7.5 14.25H8.25L8.5 13.5Z" fill="white"/>
<path d="M4.5 13.5L4.75 14.25H5.5L4.9 14.75L5.1 15.5L4.5 15.05L3.9 15.5L4.1 14.75L3.5 14.25H4.25L4.5 13.5Z" fill="white"/>
<path d="M5.90078 6.5L6.50078 6.05L7.10078 6.5L6.85078 5.75L7.45078 5.25H6.70078L6.50078 4.5L6.25078 5.25H5.55078L6.15078 5.7L5.90078 6.5Z" fill="white"/>
<path d="M1.89922 12.5L2.49922 12.05L3.09922 12.5L2.84922 11.75L3.44922 11.25H2.74922L2.49922 10.5L2.24922 11.25H1.74922C1.74922 11.3 1.69922 11.35 1.69922 11.4L2.09922 11.7L1.89922 12.5Z" fill="white"/>
</svg>
